<?xml version="1.0" encoding="iso-8859-1"?>
<!-- Generator: Adobe Illustrator 19.0.0, SVG Export Plug-In . SVG Version: 6.00 Build 0)  -->
<svg version="1.1" id="Capa_1" xmlns="http://www.w3.org/2000/svg" xmlns:xlink="http://www.w3.org/1999/xlink" x="0px" y="0px"
	 viewBox="0 0 512 512" style="enable-background:new 0 0 512 512;" xml:space="preserve">
<g>
	<path style="fill:#ECF0F1;" d="M512,256c0.013,15.282-1.358,30.533-4.096,45.568c-6.54,36.039-20.726,70.258-41.604,100.352
		c-17.515,25.072-39.308,46.864-64.38,64.38c-30.096,20.876-64.314,35.062-100.352,41.604c-30.133,5.461-61.003,5.461-91.136,0
		c-36.038-6.542-70.256-20.729-100.352-41.604c-25.072-17.515-46.864-39.308-64.38-64.38c-60.927-87.74-60.927-204.1,0-291.84
		c17.515-25.072,39.308-46.864,64.38-64.38c30.094-20.879,64.313-35.066,100.352-41.604c30.133-5.461,61.003-5.461,91.136,0
		c36.039,6.538,70.258,20.725,100.352,41.604c25.072,17.515,46.864,39.308,64.38,64.38c20.879,30.094,35.066,64.313,41.604,100.352
		C510.642,225.467,512.013,240.718,512,256z"/>
	<g>
		<path style="fill:#E64C3C;" d="M312.761,6.356l-25.335,75.917c-20.782-3.766-42.071-3.766-62.852,0L199.239,6.356
			C236.605-2.119,275.395-2.119,312.761,6.356z"/>
		<path style="fill:#E64C3C;" d="M155.365,110.963c-17.29,12.082-32.32,27.112-44.403,44.403l-71.592-35.752
			C59.779,87.2,87.2,59.779,119.614,39.371L155.365,110.963z"/>
		<path style="fill:#E64C3C;" d="M79.448,256c-0.007,10.539,0.938,21.057,2.825,31.426L6.356,312.761
			c-8.474-37.366-8.474-76.156,0-113.523l75.917,25.335C80.386,234.943,79.441,245.461,79.448,256z"/>
		<path style="fill:#E64C3C;" d="M155.365,401.037l-35.752,71.592C87.2,452.221,59.779,424.8,39.371,392.386l71.592-35.752
			C123.045,373.925,138.075,388.955,155.365,401.037z"/>
		<path style="fill:#E64C3C;" d="M312.761,505.644c-37.366,8.474-76.156,8.474-113.523,0l25.335-75.917
			c20.782,3.766,42.071,3.766,62.852,0L312.761,505.644z"/>
		<path style="fill:#E64C3C;" d="M472.629,392.386c-20.408,32.414-47.829,59.835-80.243,80.243l-35.752-71.592
			c17.29-12.082,32.32-27.112,44.403-44.403L472.629,392.386z"/>
		<path style="fill:#E64C3C;" d="M512,256c0.005,19.098-2.127,38.137-6.356,56.761l-75.917-25.335
			c3.766-20.782,3.766-42.071,0-62.852l75.917-25.335C509.873,217.863,512.005,236.902,512,256z"/>
		<path style="fill:#E64C3C;" d="M429.727,224.574c3.766,20.782,3.766,42.071,0,62.852c-4.511,24.854-14.293,48.453-28.69,69.208
			c-12.082,17.29-27.112,32.32-44.403,44.403c-20.756,14.396-44.355,24.179-69.208,28.69c-20.782,3.766-42.071,3.766-62.852,0
			c-24.854-4.511-48.453-14.293-69.208-28.69c-17.29-12.082-32.32-27.112-44.403-44.403c-42.013-60.512-42.013-140.757,0-201.269
			c12.082-17.29,27.112-32.32,44.403-44.403c20.756-14.396,44.355-24.179,69.208-28.69c20.782-3.766,42.071-3.766,62.852,0
			c24.854,4.511,48.453,14.293,69.208,28.69l35.752-71.592c32.414,20.408,59.835,47.829,80.243,80.243l-71.592,35.752
			C415.433,176.121,425.216,199.72,429.727,224.574z"/>
	</g>
	<path style="fill:#C03A2B;" d="M432.552,256c0.007,10.539-0.938,21.057-2.825,31.426c-4.511,24.854-14.293,48.453-28.69,69.208
		c-12.082,17.29-27.112,32.32-44.403,44.403c-20.756,14.396-44.355,24.179-69.208,28.69c-20.782,3.766-42.071,3.766-62.852,0
		c-24.854-4.511-48.453-14.293-69.208-28.69c-17.29-12.082-32.32-27.112-44.403-44.403c-42.013-60.512-42.013-140.757,0-201.269
		c12.082-17.29,27.112-32.32,44.403-44.403c20.756-14.396,44.355-24.179,69.208-28.69c20.782-3.766,42.071-3.766,62.852,0
		c24.854,4.511,48.453,14.293,69.208,28.69c17.29,12.082,32.32,27.112,44.403,44.403c14.396,20.756,24.179,44.355,28.69,69.208
		C431.614,234.943,432.559,245.461,432.552,256z"/>
	<g>
		<path style="fill:#E64C3C;" d="M114.759,264.828c-4.875,0-8.828-3.952-8.828-8.828c0.092-82.842,67.226-149.977,150.069-150.069
			c4.875,0,8.828,3.952,8.828,8.828s-3.952,8.828-8.828,8.828C182.904,123.669,123.669,182.904,123.586,256
			C123.586,260.875,119.634,264.828,114.759,264.828z"/>
		<path style="fill:#E64C3C;" d="M256,406.069c-4.875,0-8.828-3.952-8.828-8.828s3.952-8.828,8.828-8.828
			c73.096-0.083,132.331-59.318,132.414-132.414c0-4.875,3.952-8.828,8.828-8.828c4.875,0,8.828,3.952,8.828,8.828
			C405.976,338.842,338.842,405.977,256,406.069z"/>
	</g>
	<g>
		<path style="fill:#C03A2B;" d="M264.828,26.483h-17.655c-4.875,0-8.828,3.952-8.828,8.828s3.952,8.828,8.828,8.828h17.655
			c4.875,0,8.828-3.952,8.828-8.828S269.703,26.483,264.828,26.483z"/>
		<path style="fill:#C03A2B;" d="M99.946,87.464L87.464,99.946c-2.295,2.216-3.215,5.499-2.407,8.585
			c0.808,3.086,3.218,5.497,6.305,6.305c3.086,0.808,6.369-0.112,8.585-2.407l12.482-12.482c2.295-2.216,3.215-5.499,2.407-8.585
			c-0.808-3.086-3.218-5.497-6.305-6.305C105.444,84.249,102.162,85.169,99.946,87.464z"/>
		<path style="fill:#C03A2B;" d="M35.31,238.345c-4.875,0-8.828,3.952-8.828,8.828v17.655c0,4.875,3.952,8.828,8.828,8.828
			s8.828-3.952,8.828-8.828v-17.655C44.138,242.297,40.186,238.345,35.31,238.345z"/>
		<path style="fill:#C03A2B;" d="M99.946,399.572c-3.464-3.345-8.97-3.298-12.375,0.108c-3.405,3.405-3.453,8.911-0.108,12.375
			l12.482,12.482c3.464,3.345,8.97,3.298,12.375-0.108c3.405-3.405,3.453-8.911,0.108-12.375L99.946,399.572z"/>
		<path style="fill:#C03A2B;" d="M264.828,467.862h-17.655c-4.875,0-8.828,3.952-8.828,8.828s3.952,8.828,8.828,8.828h17.655
			c4.875,0,8.828-3.952,8.828-8.828S269.703,467.862,264.828,467.862z"/>
		<path style="fill:#C03A2B;" d="M412.054,399.572l-12.482,12.482c-2.295,2.216-3.215,5.498-2.407,8.585
			c0.808,3.086,3.218,5.497,6.305,6.305s6.368-0.112,8.585-2.407l12.482-12.482c3.345-3.464,3.298-8.97-0.108-12.375
			C421.024,396.274,415.518,396.226,412.054,399.572z"/>
		<path style="fill:#C03A2B;" d="M476.69,238.345c-4.875,0-8.828,3.952-8.828,8.828v17.655c0,4.875,3.952,8.828,8.828,8.828
			s8.828-3.952,8.828-8.828v-17.655C485.517,242.297,481.565,238.345,476.69,238.345z"/>
		<path style="fill:#C03A2B;" d="M412.054,87.464c-3.464-3.345-8.97-3.298-12.375,0.108c-3.405,3.405-3.453,8.911-0.108,12.375
			l12.482,12.482c3.464,3.345,8.97,3.298,12.375-0.108c3.405-3.405,3.453-8.911,0.108-12.375L412.054,87.464z"/>
	</g>
	<path style="fill:#ECF0F1;" d="M273.655,291.602v24.232c0,10.787,1.96,28.442,21.575,28.442h-78.46
		c19.615,0,21.575-17.655,21.575-28.442v-24.232c-15.739,7.735-34.498,5.913-48.455-4.705c-16.481-14.221-16.481-42.664,0-71.115
		c11.573-21.38,41.295-42.664,66.11-56.885c24.814,14.221,54.537,35.505,66.11,56.885c16.481,28.451,16.481,56.894,0,71.115
		C308.153,297.515,289.394,299.336,273.655,291.602z"/>
</g>
<g>
</g>
<g>
</g>
<g>
</g>
<g>
</g>
<g>
</g>
<g>
</g>
<g>
</g>
<g>
</g>
<g>
</g>
<g>
</g>
<g>
</g>
<g>
</g>
<g>
</g>
<g>
</g>
<g>
</g>
</svg>
